<svg width="231" height="45" viewBox="0 0 231 45" fill="none" xmlns="http://www.w3.org/2000/svg">
<path d="M55.3857 8.98404C55.3887 8.8173 55.4413 8.65559 55.5363 8.52117C55.5794 8.45365 55.6387 8.39905 55.7085 8.36283C55.7782 8.32661 55.8559 8.31003 55.9337 8.31475H70.8616C74.595 8.31475 77.63 9.34683 79.9724 11.4423C81.1232 12.4779 82.0371 13.7671 82.6476 15.216C83.258 16.6649 83.5496 18.237 83.5012 19.8178C83.5012 24.1087 81.5622 27.2049 77.7324 29.119V29.2253C78.178 29.8508 78.5754 30.4763 78.9367 31.033L83.4048 38.2388C83.5866 38.4598 83.7073 38.7279 83.7541 39.0144C83.7541 39.2709 83.6035 39.371 83.2543 39.371H74.0952C73.9513 39.3879 73.8057 39.3636 73.6741 39.3007C73.5425 39.2379 73.4299 39.1389 73.3485 39.0144L68.3264 30.8454H64.316V38.758C64.3131 38.9267 64.2606 39.0904 64.1654 39.2271C64.0691 39.3772 63.9185 39.3772 63.768 39.3772H55.9819C55.9088 39.3908 55.8335 39.3841 55.7637 39.3577C55.6939 39.3313 55.6321 39.2863 55.5845 39.2271C55.4919 39.089 55.4397 38.9261 55.4339 38.758L55.3857 8.98404ZM64.3461 16.2711V23.5645H70.1149C71.2938 23.627 72.4568 23.2598 73.4027 22.5262C73.7755 22.2045 74.0754 21.8015 74.2812 21.3459C74.4871 20.8902 74.5938 20.393 74.5938 19.8897C74.5938 19.3863 74.4871 18.8892 74.2812 18.4335C74.0754 17.9778 73.7755 17.5749 73.4027 17.2532C72.4546 16.5247 71.2927 16.1599 70.1149 16.2211L64.3461 16.2711Z" fill="white"/>
<path d="M97.2637 38.7647C97.2607 38.9334 97.2046 39.0971 97.103 39.2339C97.0002 39.3841 96.8395 39.3841 96.6788 39.3841H88.3926C88.2319 39.3841 88.0712 39.3841 87.9683 39.2339C87.8668 39.0971 87.8107 38.9334 87.8076 38.7647V8.98419C87.8107 8.81741 87.8669 8.65567 87.9683 8.52121C88.0143 8.45368 88.0777 8.39907 88.1521 8.36284C88.2266 8.32661 88.3095 8.31003 88.3926 8.31475H96.6788C96.7619 8.31003 96.8448 8.32661 96.9192 8.36284C96.9937 8.39907 97.057 8.45368 97.103 8.52121C97.2045 8.65567 97.2606 8.81741 97.2637 8.98419V38.7647Z" fill="white"/>
<path d="M100.631 16.1879C100.45 16.1649 100.285 16.0729 100.17 15.9309C100.105 15.8716 100.053 15.799 100.018 15.718C99.9822 15.6369 99.9642 15.5492 99.9649 15.4607V9.04118C99.9862 8.85705 100.078 8.68846 100.22 8.571C100.337 8.42758 100.504 8.33542 100.687 8.31396H130.319C130.5 8.3357 130.665 8.42797 130.78 8.571C130.922 8.68846 131.014 8.85705 131.035 9.04118V15.4607C131.036 15.5492 131.018 15.6369 130.982 15.718C130.947 15.799 130.895 15.8716 130.829 15.9309C130.773 16.0022 130.704 16.0617 130.625 16.1058C130.546 16.1499 130.459 16.1778 130.369 16.1879H120.184V38.7566C120.178 38.9251 120.124 39.0883 120.029 39.2268C119.979 39.2861 119.916 39.3312 119.843 39.3576C119.771 39.3841 119.693 39.3908 119.618 39.3772H111.594C111.438 39.3772 111.282 39.3772 111.183 39.2268C111.084 39.0897 111.03 38.9256 111.027 38.7566V16.1879H100.631Z" fill="white"/>
<path d="M142.989 27.443V31.5776H160.025C160.203 31.6165 160.367 31.7055 160.496 31.8341C160.625 31.9627 160.715 32.1256 160.754 32.3032V38.7085C160.754 38.7968 160.736 38.8843 160.701 38.9652C160.665 39.046 160.612 39.1184 160.546 39.1776C160.488 39.2424 160.416 39.2943 160.336 39.3298C160.256 39.3654 160.169 39.3838 160.081 39.3841H134.308C134.156 39.3838 134.008 39.3282 133.893 39.2277C133.795 39.0929 133.74 38.9314 133.736 38.7648V8.98405C133.74 8.81745 133.795 8.65597 133.893 8.52117C133.938 8.45365 134 8.39906 134.073 8.36283C134.146 8.32661 134.227 8.31003 134.308 8.31475H159.867C160.05 8.33771 160.216 8.42952 160.333 8.57121C160.476 8.68841 160.569 8.85663 160.59 9.04035V15.4456C160.591 15.534 160.573 15.6214 160.537 15.7023C160.501 15.7832 160.449 15.8556 160.383 15.9148C160.326 15.9859 160.256 16.0452 160.176 16.0893C160.096 16.1333 160.008 16.1611 159.918 16.1712H143.09V19.9994H158.365C158.456 20.0094 158.544 20.0373 158.623 20.0813C158.703 20.1253 158.774 20.1846 158.83 20.2558C158.974 20.3713 159.068 20.5367 159.094 20.7187V26.6111C159.093 26.6991 159.074 26.786 159.038 26.8666C159.003 26.9472 158.951 27.0198 158.887 27.0802C158.769 27.2233 158.6 27.3152 158.415 27.3366L142.989 27.443Z" fill="white"/>
<path d="M186.161 21.5505C185.708 21.5505 185.402 21.3015 185.249 20.749C184.936 19.3745 184.151 18.1509 183.028 17.2879C181.79 16.3853 180.28 15.9252 178.745 15.9824C177.758 15.9617 176.778 16.1423 175.864 16.5131C174.95 16.8839 174.123 17.437 173.434 18.138C172.695 18.9021 172.122 19.8079 171.748 20.7998C171.375 21.7917 171.209 22.8488 171.262 23.9064C171.212 24.9606 171.374 26.0142 171.738 27.0056C172.103 27.997 172.662 28.9065 173.385 29.6809C174.068 30.3897 174.895 30.9479 175.81 31.3193C176.725 31.6907 177.708 31.8669 178.696 31.8365C182.184 31.8365 184.356 30.3853 185.219 27.4221C185.263 27.182 185.397 26.9669 185.592 26.8187C185.788 26.6706 186.032 26.6 186.277 26.6206H193.51C194.122 26.6206 194.421 26.8696 194.421 27.3189C194.421 30.5857 193.008 33.3909 190.175 35.8198C187.342 38.2486 183.499 39.3841 178.696 39.3841C173.991 39.3841 170.05 37.9753 166.862 35.0668C163.674 32.1583 162.108 28.4422 162.108 23.9246C162.062 21.8358 162.467 19.7614 163.295 17.8407C164.124 15.9199 165.357 14.1973 166.911 12.7885C170.11 9.81269 174.362 8.20712 178.745 8.31949C183.395 8.31949 187.189 9.5339 190.126 11.9627C193.063 14.3915 194.525 17.3304 194.525 20.6943C194.525 21.2408 194.22 21.4958 193.663 21.4958L186.161 21.5505Z" fill="white"/>
<path d="M231 38.7576C230.997 38.9252 230.947 39.0882 230.858 39.2267C230.811 39.2864 230.749 39.3317 230.68 39.358C230.611 39.3844 230.536 39.3909 230.463 39.3768H222.867C222.795 39.3897 222.722 39.3827 222.654 39.3564C222.585 39.33 222.525 39.2854 222.478 39.2267C222.387 39.0886 222.336 38.9257 222.331 38.7576V28.7497H208.599V38.7576C208.596 38.9262 208.545 39.09 208.452 39.2267C208.357 39.3768 208.21 39.3768 208.063 39.3768H200.466C200.319 39.3768 200.171 39.3768 200.077 39.2267C199.984 39.09 199.932 38.9262 199.93 38.7576V8.98403C199.933 8.81729 199.984 8.65559 200.077 8.52116C200.119 8.45365 200.177 8.39905 200.246 8.36283C200.314 8.32661 200.39 8.31003 200.466 8.31475H208.063C208.139 8.31003 208.215 8.32661 208.283 8.36283C208.351 8.39905 208.409 8.45365 208.452 8.52116C208.545 8.65559 208.596 8.81729 208.599 8.98403V20.8684H222.331V8.98403C222.336 8.81784 222.388 8.65701 222.478 8.52116C222.521 8.45453 222.579 8.40061 222.647 8.36449C222.715 8.32838 222.791 8.31126 222.867 8.31475H230.463C230.54 8.31017 230.617 8.32677 230.686 8.36293C230.756 8.39909 230.815 8.45359 230.858 8.52116C230.947 8.65738 230.996 8.81835 231 8.98403V38.7576Z" fill="white"/>
<path d="M34.5266 12.8833C34.3503 12.5654 34.0155 12.3682 33.652 12.3682H16.8506C16.4875 12.3682 16.1529 12.565 15.9765 12.8824L14.4767 15.5816C14.3088 15.8836 14.3088 16.2509 14.4767 16.553L15.9765 19.2521C16.1529 19.5696 16.4875 19.7664 16.8506 19.7664H29.547C29.9104 19.7664 30.2453 19.9636 30.4215 20.2814L34.7542 28.0936C34.9215 28.3953 34.9215 28.762 34.7542 29.0636L30.4215 36.8759C30.2453 37.1937 29.9105 37.3909 29.547 37.3909H13.8557C13.0935 37.3909 12.6115 38.2095 12.9813 38.8761L15.9767 44.2743C16.1529 44.592 16.4877 44.7891 16.8511 44.7891H33.652C34.0155 44.7891 34.3503 44.5919 34.5266 44.274L42.9585 29.0635C43.1257 28.7619 43.1257 28.3954 42.9585 28.0938L34.5266 12.8833Z" fill="white"/>
<path d="M8.70674 32.1172C8.88302 32.435 9.21781 32.6321 9.58121 32.6321H26.3819C26.7455 32.6321 27.0804 32.4348 27.2566 32.1168L28.7521 29.4177C28.9191 29.1162 28.9191 28.7499 28.7521 28.4484L27.2566 25.7493C27.0804 25.4312 26.7455 25.2339 26.3819 25.2339H13.6803C13.3169 25.2339 12.982 25.0367 12.8058 24.7189L8.47309 16.9067C8.30577 16.605 8.30577 16.2383 8.47309 15.9367L12.8058 8.12442C12.982 7.8066 13.3169 7.60942 13.6803 7.60942H29.3728C30.1348 7.60942 30.6168 6.7913 30.2475 6.12478L27.2566 0.726543C27.0804 0.408516 26.7455 0.211182 26.3819 0.211182H9.58121C9.21781 0.211182 8.88302 0.408318 8.70674 0.726093L0.269091 15.9366C0.101711 16.2383 0.101711 16.605 0.269091 16.9067L8.70674 32.1172Z" fill="#FFD700"/>
</svg>
