<svg width="217" height="55" viewBox="0 0 217 55" fill="none" xmlns="http://www.w3.org/2000/svg">
<g id="2" clip-path="url(#clip0_3054_16890)">
<path id="Vector" d="M132.247 36C137.384 36 141.399 32.4367 141.399 27C141.399 21.5633 137.384 18 132.247 18C127.111 18 123.096 21.5633 123.096 27C123.096 32.4735 127.111 36 132.247 36ZM0 35.5959H2.38795V22.6286L12.1539 35.5959H14.5419V18.5878H12.1539V31.5551L2.38795 18.5878H0V35.5959ZM20.8359 35.5959H32.7368V33.1347H23.2589V28.3225H31.2538V25.8612H23.2589V21.0489H32.7368V18.5878H20.8359V35.5959ZM42.7928 35.5959H45.1798V21.0489H51.2208V18.5878H36.7158V21.0489H42.7568V35.5959H42.7928ZM67.7877 35.5959H70.3927L72.5267 30.7836H80.8826L83.0166 35.5959H85.6206L77.9526 18.5878H75.3846L67.7877 35.5959ZM105.408 35.5959H107.795V28.3225H114.848C117.814 28.3225 119.804 26.4489 119.804 23.4368C119.804 20.4613 117.814 18.551 114.848 18.551H105.408V35.5959ZM146.065 35.5959H148.453V28.3225H151.781C154.168 28.3225 154.855 28.9102 156.628 31.5919L158.147 33.9428C158.545 34.5674 159.015 35.1918 159.341 35.5959H162.596V35.5592C161.764 34.8612 161.33 34.3102 160.173 32.5469L159.522 31.5919C157.604 28.7266 157.46 28.3591 156.338 27.6613C158.473 27.1102 159.666 25.5306 159.666 23.3266C159.666 20.3143 157.677 18.5878 154.711 18.5878H146.065V35.5959ZM169.686 35.5959H172.074V21.0489H178.114V18.5878H163.609V21.0489H169.65L169.686 35.5959ZM182.6 35.5959H194.501V33.1347H185.023V28.3225H193.018V25.8612H185.023V21.0489H194.501V18.5878H182.6V35.5959ZM200.469 35.5959H202.857V28.3225H206.185C208.572 28.3225 209.259 28.9102 211.032 31.5919L212.551 33.9428C212.949 34.5674 213.419 35.1918 213.745 35.5959H217V35.5592C216.168 34.8612 215.734 34.3102 214.577 32.5469L213.926 31.5919C212.008 28.7266 211.864 28.3591 210.742 27.6613C212.877 27.1102 214.07 25.5306 214.07 23.3266C214.07 20.3143 212.081 18.5878 209.115 18.5878H200.469V35.5959ZM132.247 33.6489C128.413 33.6489 125.591 31.0041 125.591 27.0367C125.591 23.0693 128.413 20.4245 132.247 20.4245C136.118 20.4245 138.903 23.0693 138.903 27.0367C138.903 31.0041 136.118 33.6489 132.247 33.6489ZM107.795 25.8612V21.0123H114.703C116.259 21.0123 117.272 21.8204 117.272 23.4368C117.272 25.0531 116.259 25.8612 114.703 25.8612H107.795ZM148.453 25.8612V21.0123H154.602C156.158 21.0123 157.134 21.8204 157.134 23.4368C157.134 25.0531 156.158 25.8612 154.602 25.8612H148.453ZM202.893 25.8612V21.0123H209.042C210.598 21.0123 211.574 21.8204 211.574 23.4368C211.574 25.0531 210.598 25.8612 209.042 25.8612H202.893ZM73.6477 28.3225L76.7226 21.5265L79.7976 28.3225H73.6477ZM54.2597 28.3225H64.3517V25.8612H54.2597V28.3225ZM89.0936 28.3225H99.1856V25.8612H89.0936V28.3225Z" fill="white"/>
</g>
<defs>
<clipPath id="clip0_3054_16890">
<rect width="217" height="55" fill="white"/>
</clipPath>
</defs>
</svg>
