<svg width="217" height="55" viewBox="0 0 217 55" fill="none" xmlns="http://www.w3.org/2000/svg">
<g id="1" clip-path="url(#clip0_3054_16902)">
<g id="Group 48097982">
<path id="Vector" d="M51.6289 30.998C51.8077 31.4474 51.751 32.0232 51.6638 32.3722C51.5111 32.9917 51.0923 33.6242 49.8534 33.6242C48.693 33.6242 47.9862 32.9524 47.9862 31.9403V30.1386H43V31.5695C43 35.7138 46.2587 36.9658 49.753 36.9658C53.1121 36.9658 55.8779 35.8229 56.3185 32.7212C56.5453 31.1158 56.3795 30.0645 56.301 29.6762C55.5158 25.785 48.4661 24.6246 47.9383 22.4477C47.865 22.1266 47.8589 21.7938 47.9208 21.4705C48.0517 20.8729 48.4574 20.2229 49.6178 20.2229C50.7084 20.2229 51.3409 20.8947 51.3409 21.9068V23.0584H55.9782V21.7497C55.9782 17.7014 52.3443 17.0688 49.7181 17.0688C46.4114 17.0688 43.7111 18.1638 43.2181 21.1957C43.0872 22.0246 43.0654 22.7662 43.2617 23.6997C44.0688 27.495 50.6691 28.5944 51.6289 30.998Z" fill="white"/>
<path id="Vector_2" d="M62.8926 17.6621L59.4463 36.2416H64.4674L67.0107 19.3809H67.1154L69.5889 36.2416H74.5839L71.1594 17.6577L62.8926 17.6621ZM90.9647 17.6621L88.6745 31.8661H88.5654L86.2795 17.6621H78.702L78.2919 36.2416H82.9423L83.0557 19.5379H83.1604L86.2621 36.2416H90.9778L94.0839 19.5423H94.1842L94.302 36.2416H98.948L98.5379 17.6577L90.9647 17.6621Z" fill="white"/>
<path id="Vector_3" d="M112.035 30.9634C112.214 31.4127 112.157 31.9885 112.07 32.3375C111.917 32.957 111.499 33.5895 110.26 33.5895C109.099 33.5895 108.393 32.9177 108.393 31.9057V30.104H103.406V31.5349C103.406 35.6791 106.665 36.9312 110.159 36.9312C113.519 36.9312 116.284 35.7882 116.725 32.6865C116.952 31.0812 116.786 30.0298 116.707 29.6416C115.922 25.7503 108.873 24.5899 108.345 22.413C108.271 22.092 108.265 21.7591 108.327 21.4359C108.458 20.8382 108.864 20.1882 110.024 20.1882C111.115 20.1882 111.747 20.86 111.747 21.8721V23.0238H116.385V21.7151C116.385 17.6667 112.751 17.0342 110.125 17.0342C106.818 17.0342 104.117 18.1291 103.625 21.161C103.494 21.9899 103.472 22.7315 103.668 23.6651C104.475 27.4604 111.076 28.5597 112.035 30.9634Z" fill="white"/>
<path id="Vector_4" d="M127.631 33.4586C128.922 33.4586 129.319 32.5687 129.411 32.115C129.45 31.9143 129.454 31.6438 129.454 31.4039V17.6623H134.157V30.9807C134.158 31.3882 134.144 31.7956 134.113 32.2022C133.786 35.6703 131.047 36.7958 127.631 36.7958C124.211 36.7958 121.471 35.6703 121.144 32.2022C121.131 32.019 121.096 31.321 121.1 30.9807V17.6579H125.803V31.3995C125.799 31.6438 125.807 31.9143 125.847 32.115C125.934 32.5687 126.335 33.4586 127.631 33.4586ZM150.35 17.6623L150.603 32.2458H150.503L146.228 17.6623H139.335V36.0455H143.903L143.65 20.9559H143.75L148.335 36.0455H154.953V17.6623H150.35ZM166.382 33.2667C167.726 33.2667 168.197 32.416 168.28 31.9143C168.319 31.7093 168.324 31.4475 168.324 31.2163V28.5116H166.417V25.8069H173V30.7888C173 31.1378 172.991 31.3908 172.935 32.0103C172.629 35.3955 169.693 36.6039 166.4 36.6039C163.106 36.6039 160.175 35.3955 159.865 32.0103C159.812 31.3908 159.799 31.1378 159.799 30.7888V22.9714C159.799 22.6398 159.843 22.0552 159.878 21.7499C160.292 18.273 163.106 17.1562 166.4 17.1562C169.693 17.1562 172.581 18.2643 172.921 21.7455C172.983 22.3388 172.965 22.967 172.965 22.967V23.5908H168.28V22.5482C168.28 22.5482 168.28 22.112 168.223 21.8415C168.136 21.4314 167.787 20.4891 166.365 20.4891C165.012 20.4891 164.615 21.3834 164.515 21.8415C164.458 22.0858 164.437 22.4173 164.437 22.7183V31.212C164.437 31.4475 164.445 31.7093 164.48 31.9187C164.567 32.416 165.039 33.2667 166.382 33.2667Z" fill="white"/>
</g>
</g>
<defs>
<clipPath id="clip0_3054_16902">
<rect width="217" height="55" fill="white"/>
</clipPath>
</defs>
</svg>
